<svg xmlns="http://www.w3.org/2000/svg" viewBox="0 0 360 84" role="img" aria-labelledby="title">
  <title id="title">Checklist ML</title>
  <defs>
    <linearGradient id="surface" x1="8" y1="5" x2="74" y2="80" gradientUnits="userSpaceOnUse">
      <stop stop-color="#0A57E8"/><stop offset=".5" stop-color="#2545E8"/><stop offset="1" stop-color="#7C2EE8"/>
    </linearGradient>
    <linearGradient id="route" x1="17" y1="67" x2="66" y2="16" gradientUnits="userSpaceOnUse">
      <stop stop-color="#76F7D4"/><stop offset="1" stop-color="#65D7FF"/>
    </linearGradient>
  </defs>
  <rect x="3" y="3" width="78" height="78" rx="25" fill="url(#surface)"/>
  <path d="M18 67c8-20 21-26 34-22 10 3 16-2 19-13 3-10 8-18 15-26" fill="none" stroke="#100975" stroke-opacity=".4" stroke-width="13" stroke-linecap="round"/>
  <path d="M18 67c8-20 21-26 34-22 10 3 16-2 19-13 3-10 8-18 15-26" fill="none" stroke="url(#route)" stroke-width="9" stroke-linecap="round"/>
  <path d="m20 39 13 13 33-33" fill="none" stroke="#fff" stroke-width="11" stroke-linecap="round" stroke-linejoin="round"/>
  <path d="m62 15 11 2-2 11" fill="none" stroke="#76F7D4" stroke-width="5" stroke-linecap="round" stroke-linejoin="round"/>
  <text x="101" y="40" font-family="Inter, Arial, Helvetica, sans-serif" font-weight="800" font-size="29" letter-spacing="-.9" fill="#15213D">Checklist</text>
  <text x="103" y="63" font-family="Inter, Arial, Helvetica, sans-serif" font-weight="800" font-size="14" letter-spacing="4.6" fill="#3658E9">ML</text>
</svg>
